<svg width="12" height="12" viewBox="0 0 12 12" fill="none" xmlns="http://www.w3.org/2000/svg">
<path d="M9.84998 11.25C9.76539 11.2495 9.68345 11.2204 9.61748 11.1675L6.90623 9H1.59998C1.30161 9 1.01546 8.88147 0.80448 8.6705C0.593502 8.45952 0.474976 8.17337 0.474976 7.875V1.875C0.474976 1.57663 0.593502 1.29048 0.80448 1.0795C1.01546 0.868526 1.30161 0.75 1.59998 0.75H10.6C10.8983 0.75 11.1845 0.868526 11.3955 1.0795C11.6064 1.29048 11.725 1.57663 11.725 1.875V7.875C11.725 8.17337 11.6064 8.45952 11.3955 8.6705C11.1845 8.88147 10.8983 9 10.6 9H10.225V10.875C10.2248 10.9457 10.2046 11.0149 10.1668 11.0746C10.129 11.1343 10.075 11.1821 10.0112 11.2125C9.96137 11.238 9.90599 11.2509 9.84998 11.25ZM1.59998 1.5C1.50052 1.5 1.40514 1.53951 1.33481 1.60984C1.26448 1.68016 1.22498 1.77554 1.22498 1.875V7.875C1.22498 7.97446 1.26448 8.06984 1.33481 8.14017C1.40514 8.21049 1.50052 8.25 1.59998 8.25H7.03748C7.12335 8.24964 7.20674 8.27876 7.27373 8.3325L9.47498 10.095V8.625C9.47498 8.52554 9.51448 8.43016 9.58481 8.35984C9.65514 8.28951 9.75052 8.25 9.84998 8.25H10.6C10.6994 8.25 10.7948 8.21049 10.8651 8.14017C10.9355 8.06984 10.975 7.97446 10.975 7.875V1.875C10.975 1.77554 10.9355 1.68016 10.8651 1.60984C10.7948 1.53951 10.6994 1.5 10.6 1.5H1.59998Z" fill="white"/>
<path d="M6.47498 4.5H5.72498V5.25H6.47498V4.5Z" fill="white"/>
<path d="M3.84998 4.5H3.09998V5.25H3.84998V4.5Z" fill="white"/>
<path d="M9.09998 4.5H8.34998V5.25H9.09998V4.5Z" fill="white"/>
</svg>
