<svg width="25" height="24" viewBox="0 0 25 24" fill="none" xmlns="http://www.w3.org/2000/svg">
<path d="M21.9643 0H2.63571C1.93668 0 1.26628 0.270918 0.771983 0.753154C0.277691 1.23539 0 1.88944 0 2.57143L0 21.4286C0 22.1106 0.277691 22.7646 0.771983 23.2468C1.26628 23.7291 1.93668 24 2.63571 24H10.1722V15.8405H6.71283V12H10.1722V9.07286C10.1722 5.74339 12.2039 3.90429 15.3157 3.90429C16.806 3.90429 18.3643 4.16357 18.3643 4.16357V7.43143H16.6473C14.9555 7.43143 14.4278 8.45571 14.4278 9.50625V12H18.2045L17.6005 15.8405H14.4278V24H21.9643C22.6633 24 23.3337 23.7291 23.828 23.2468C24.3223 22.7646 24.6 22.1106 24.6 21.4286V2.57143C24.6 1.88944 24.3223 1.23539 23.828 0.753154C23.3337 0.270918 22.6633 0 21.9643 0Z" fill="#DA1C5C"/>
</svg>
