<svg width="24" height="24" viewBox="0 0 24 24" fill="none" xmlns="http://www.w3.org/2000/svg">
<path d="M21.4286 0H2.57143C1.15179 0 0 1.15179 0 2.57143V21.4286C0 22.8482 1.15179 24 2.57143 24H21.4286C22.8482 24 24 22.8482 24 21.4286V2.57143C24 1.15179 22.8482 0 21.4286 0ZM7.74107 15.375C5.86071 15.375 4.33929 13.8536 4.33929 11.9732C4.33929 10.0929 5.86071 8.57143 7.74107 8.57143C9.62143 8.57143 11.1429 10.0929 11.1429 11.9732C11.1429 13.8536 9.62143 15.375 7.74107 15.375ZM16.2589 15.375C14.3786 15.375 12.8571 13.8536 12.8571 11.9732C12.8571 10.0929 14.3786 8.57143 16.2589 8.57143C18.1393 8.57143 19.6607 10.0929 19.6607 11.9732C19.6607 13.8536 18.1393 15.375 16.2589 15.375Z" fill="#DA1C5C"/>
</svg>
