<svg width="26" height="24" viewBox="0 0 26 24" fill="none" xmlns="http://www.w3.org/2000/svg">
<path d="M13.4 9.1425C12.8067 9.14271 12.2267 9.31048 11.7334 9.6246C11.2402 9.93871 10.8558 10.3851 10.6289 10.9072C10.4019 11.4294 10.3427 12.0039 10.4586 12.5581C10.5745 13.1124 10.8603 13.6214 11.28 14.0209C11.6996 14.4205 12.2343 14.6925 12.8162 14.8027C13.3982 14.9128 14.0014 14.8562 14.5496 14.6399C15.0978 14.4236 15.5663 14.0573 15.896 13.5874C16.2256 13.1175 16.4015 12.5651 16.4015 12C16.401 11.2421 16.0845 10.5155 15.5217 9.97969C14.9589 9.4439 14.1958 9.14278 13.4 9.1425ZM20.415 6.94607C20.2622 6.57742 20.0316 6.24258 19.7373 5.96234C19.4431 5.6821 19.0915 5.46243 18.7044 5.31696C17.5232 4.87286 14.7107 4.9725 13.4 4.9725C12.0894 4.9725 9.27974 4.86911 8.09511 5.31696C7.70802 5.46243 7.35645 5.6821 7.0622 5.96234C6.76794 6.24258 6.53729 6.57742 6.38455 6.94607C5.9188 8.07107 6.02286 10.7523 6.02286 11.9995C6.02286 13.2466 5.9188 15.9246 6.3868 17.0534C6.53954 17.422 6.77019 17.7569 7.06445 18.0371C7.3587 18.3174 7.71027 18.537 8.09736 18.6825C9.27861 19.1266 12.0911 19.027 13.4023 19.027C14.7135 19.027 17.522 19.1304 18.7067 18.6825C19.0938 18.537 19.4453 18.3174 19.7396 18.0371C20.0338 17.7569 20.2645 17.422 20.4172 17.0534C20.8869 15.9284 20.7789 13.2471 20.7789 12C20.7789 10.7529 20.8869 8.07536 20.4172 6.94661L20.415 6.94607ZM13.4 16.3929C12.4878 16.3929 11.596 16.1352 10.8375 15.6525C10.079 15.1698 9.48776 14.4838 9.13866 13.6811C8.78955 12.8784 8.6982 11.9951 8.87618 11.143C9.05415 10.2909 9.49345 9.50813 10.1385 8.89378C10.7836 8.27943 11.6055 7.86105 12.5002 7.69155C13.3949 7.52205 14.3224 7.60904 15.1652 7.94153C16.008 8.27401 16.7284 8.83706 17.2352 9.55946C17.742 10.2819 18.0125 11.1312 18.0125 12C18.0133 12.5771 17.8945 13.1486 17.663 13.6819C17.4314 14.2152 17.0917 14.6997 16.6632 15.1078C16.2348 15.5158 15.726 15.8394 15.1661 16.0599C14.6061 16.2804 14.006 16.3936 13.4 16.3929ZM18.2027 8.44821C17.9897 8.44832 17.7815 8.38827 17.6044 8.27567C17.4273 8.16307 17.2892 8.00297 17.2076 7.81562C17.126 7.62827 17.1046 7.42208 17.1461 7.22315C17.1876 7.02421 17.2901 6.84146 17.4406 6.69801C17.5912 6.55456 17.783 6.45685 17.9919 6.41724C18.2007 6.37763 18.4172 6.39791 18.614 6.4755C18.8107 6.55309 18.9789 6.68451 19.0973 6.85314C19.2156 7.02177 19.2787 7.22004 19.2787 7.42286C19.2793 7.55754 19.252 7.69101 19.1983 7.81562C19.1446 7.94022 19.0656 8.0535 18.9659 8.14896C18.8661 8.24442 18.7475 8.32019 18.6169 8.37191C18.4864 8.42363 18.3463 8.45029 18.2049 8.45036L18.2027 8.44821ZM23.3 0H3.50005C2.78396 0 2.09721 0.270918 1.59086 0.753154C1.08451 1.23539 0.800049 1.88944 0.800049 2.57143L0.800049 21.4286C0.800049 22.1106 1.08451 22.7646 1.59086 23.2468C2.09721 23.7291 2.78396 24 3.50005 24H23.3C24.0161 24 24.7029 23.7291 25.2092 23.2468C25.7156 22.7646 26 22.1106 26 21.4286V2.57143C26 1.88944 25.7156 1.23539 25.2092 0.753154C24.7029 0.270918 24.0161 0 23.3 0ZM22.337 15.5357C22.2645 16.9088 21.9354 18.1254 20.883 19.125C19.8305 20.1246 18.5542 20.4445 17.1142 20.5098C15.6287 20.5896 11.1748 20.5896 9.68924 20.5098C8.24755 20.4407 6.97461 20.1268 5.92049 19.125C4.86636 18.1232 4.53505 16.9061 4.46642 15.5357C4.38261 14.1204 4.38261 9.87804 4.46642 8.46429C4.53899 7.09125 4.86411 5.87464 5.92049 4.875C6.97686 3.87536 8.25317 3.55929 9.68924 3.49393C11.1748 3.41411 15.6287 3.41411 17.1142 3.49393C18.5559 3.56304 19.8328 3.87696 20.883 4.87875C21.9332 5.88054 22.2684 7.09768 22.337 8.47071C22.4209 9.88071 22.4209 14.1193 22.337 15.5357Z" fill="#DA1C5C"/>
</svg>
