<svg width="26" height="24" viewBox="0 0 26 24" fill="none" xmlns="http://www.w3.org/2000/svg">
<path d="M23.4 0H1.79438C0.804375 0 0 0.776786 0 1.73036V22.2696C0 23.2232 0.804375 24 1.79438 24H23.4C24.39 24 25.2 23.2232 25.2 22.2696V1.73036C25.2 0.776786 24.39 0 23.4 0ZM7.61625 20.5714H3.88125V9.11786H7.62188V20.5714H7.61625ZM5.74875 7.55357C4.55063 7.55357 3.58313 6.62679 3.58313 5.49107C3.58313 4.35536 4.55063 3.42857 5.74875 3.42857C6.94125 3.42857 7.91438 4.35536 7.91438 5.49107C7.91438 6.63214 6.94688 7.55357 5.74875 7.55357ZM21.6169 20.5714H17.8819V15C17.8819 13.6714 17.8538 11.9625 15.9413 11.9625C13.995 11.9625 13.6969 13.4089 13.6969 14.9036V20.5714H9.96188V9.11786H13.545V10.6821H13.5956C14.0963 9.78214 15.3169 8.83393 17.1338 8.83393C20.9138 8.83393 21.6169 11.2071 21.6169 14.2929V20.5714Z" fill="#DA1C5C"/>
</svg>
