<svg width="26" height="24" viewBox="0 0 26 24" fill="none" xmlns="http://www.w3.org/2000/svg">
<path d="M12.8 4.86429C8.71064 4.86429 5.38626 8.03036 5.38064 11.925C5.38064 13.2589 5.77439 14.5607 6.51689 15.6804L6.69126 15.9482L5.94314 18.5518L8.75001 17.85L9.02001 18.0054C10.1563 18.6482 11.4613 18.9911 12.7944 18.9911H12.8C16.8838 18.9911 20.2981 15.825 20.2981 11.9304C20.2981 10.0446 19.4431 8.27143 18.0425 6.9375C16.6363 5.59821 14.78 4.86429 12.8 4.86429ZM17.1594 14.9571C16.9738 15.4554 16.085 15.9054 15.6575 15.9643C14.9488 16.0661 14.3975 16.0125 12.9856 15.4339C10.7525 14.5125 9.29001 12.3696 9.17751 12.2304C9.06501 12.0911 8.26626 11.0786 8.26626 10.0339C8.26626 8.98929 8.84001 8.475 9.04814 8.26071C9.25064 8.04643 9.49251 7.99286 9.64439 7.99286C9.79064 7.99286 9.94251 7.99286 10.0719 7.99821C10.2069 8.00357 10.3925 7.95 10.5725 8.3625C10.7581 8.78571 11.2025 9.83036 11.2588 9.9375C11.315 10.0446 11.3544 10.1679 11.2756 10.3071C10.8481 11.1214 10.3925 11.0893 10.6231 11.4643C11.4838 12.8732 12.3444 13.3607 13.655 13.9875C13.88 14.0946 14.0094 14.0786 14.1388 13.9339C14.2681 13.7946 14.6956 13.3125 14.8419 13.1036C14.9881 12.8893 15.14 12.9268 15.3425 12.9964C15.545 13.0661 16.6419 13.5804 16.8669 13.6875C17.0919 13.7946 17.2381 13.8482 17.2944 13.9339C17.345 14.0357 17.345 14.4643 17.1594 14.9571ZM22.7 0H2.90001C1.40939 0 0.200012 1.15179 0.200012 2.57143V21.4286C0.200012 22.8482 1.40939 24 2.90001 24H22.7C24.1906 24 25.4 22.8482 25.4 21.4286V2.57143C25.4 1.15179 24.1906 0 22.7 0ZM12.7944 20.4214C11.2981 20.4214 9.83001 20.0625 8.53064 19.3875L3.80001 20.5714L5.06564 16.1679C4.28376 14.8821 3.87314 13.4196 3.87314 11.9196C3.87876 7.2375 7.87814 3.42857 12.7944 3.42857C15.1794 3.42857 17.4181 4.3125 19.1056 5.91964C20.7875 7.52679 21.8 9.65893 21.8 11.9304C21.8 16.6125 17.7106 20.4214 12.7944 20.4214Z" fill="#DA1C5C"/>
</svg>
