<svg width="25" height="24" viewBox="0 0 25 24" fill="none" xmlns="http://www.w3.org/2000/svg">
<path d="M3.91431 0C1.97596 0 0.400024 1.5375 0.400024 3.42857V20.5714C0.400024 22.4625 1.97596 24 3.91431 24H21.4857C23.4241 24 25 22.4625 25 20.5714V3.42857C25 1.5375 23.4241 0 21.4857 0H3.91431ZM20.2283 4.5L14.5286 10.8536L21.2331 19.5H15.9837L11.8764 14.2554L7.17052 19.5H4.56226L10.6573 12.7018L4.2273 4.5H9.60855L13.326 9.29464L17.62 4.5H20.2283ZM18.1527 17.9786L8.82333 5.94107H7.26935L16.703 17.9786H18.1472H18.1527Z" fill="#DA1C5C"/>
</svg>
