<svg width="26" height="24" viewBox="0 0 26 24" fill="none" xmlns="http://www.w3.org/2000/svg">
<path d="M11.1075 9.1125L16.4625 12.0107L11.1075 14.9089V9.1125ZM25.8 2.57143V21.4286C25.8 22.8482 24.5906 24 23.1 24H3.29998C1.80935 24 0.599976 22.8482 0.599976 21.4286V2.57143C0.599976 1.15179 1.80935 0 3.29998 0H23.1C24.5906 0 25.8 1.15179 25.8 2.57143ZM23.4375 12.0161C23.4375 12.0161 23.4375 8.82321 23.01 7.29107C22.7737 6.44464 22.0819 5.78036 21.1987 5.55536C19.6069 5.14286 13.2 5.14286 13.2 5.14286C13.2 5.14286 6.7931 5.14286 5.20123 5.55536C4.3181 5.78036 3.62623 6.44464 3.38998 7.29107C2.96248 8.81786 2.96248 12.0161 2.96248 12.0161C2.96248 12.0161 2.96248 15.2089 3.38998 16.7411C3.62623 17.5875 4.3181 18.225 5.20123 18.45C6.7931 18.8571 13.2 18.8571 13.2 18.8571C13.2 18.8571 19.6069 18.8571 21.1987 18.4446C22.0819 18.2196 22.7737 17.5821 23.01 16.7357C23.4375 15.2089 23.4375 12.0161 23.4375 12.0161Z" fill="#DA1C5C"/>
</svg>
